<svg xmlns="http://www.w3.org/2000/svg" viewBox="0 0 4020 4020" role="img" width="4020" height="4020"><metadata><rdf:RDF xmlns:rdf="http://www.w3.org/1999/02/22-rdf-syntax-ns#" xmlns:dc="http://purl.org/dc/elements/1.1/"><rdf:Description><dc:creator>RealFaviconGenerator</dc:creator><dc:source>https://realfavicongenerator.net</dc:source></rdf:Description></rdf:RDF></metadata><g transform="translate(0, 480)"><path fill="currentColor" d="M 2678 86 C 2544 110 2386 180 2245 278 C 2144 348 2016 452 1460 915 C 927 1358 782 1477 630 1594 L 515 1682 L 512 1099 C 510 778 512 469 515 413 C 524 270 526 269 708 234 C 727 230 731 224 728 202 L 725 175 L 390 175 L 55 175 L 52 202 C 48 231 55 235 136 245 C 198 253 247 281 260 316 C 277 359 269 2539 252 2567 C 235 2598 198 2615 118 2630 L 50 2642 L 50 2676 L 50 2710 L 390 2710 L 730 2710 L 730 2676 L 730 2642 L 658 2630 C 570 2615 532 2597 520 2564 C 514 2550 510 2388 510 2191 L 510 1842 L 592 1772 L 674 1702 L 725 1717 C 794 1737 947 1810 1033 1866 C 1175 1958 1303 2063 1641 2365 C 2111 2785 2394 2932 2865 3001 C 2984 3019 3388 3019 3495 3002 C 3610 2983 3610 2983 3610 2948 C 3610 2923 3607 2919 3593 2925 C 3583 2928 3492 2934 3390 2937 C 3110 2946 2863 2916 2650 2848 C 2549 2816 2338 2720 2326 2701 C 2321 2693 2470 2690 2909 2690 L 3499 2690 L 3504 2648 C 3507 2624 3512 2561 3516 2507 L 3522 2410 L 3487 2410 C 3455 2410 3452 2413 3447 2447 C 3435 2522 3382 2561 3269 2580 C 3233 2585 3044 2590 2843 2590 C 2528 2590 2479 2588 2466 2574 C 2452 2561 2450 2507 2450 2141 C 2450 1830 2453 1721 2462 1712 C 2480 1694 3109 1695 3134 1713 C 3144 1721 3155 1744 3159 1766 C 3164 1799 3169 1805 3193 1808 C 3219 1811 3220 1810 3220 1758 C 3220 1729 3223 1661 3227 1607 L 3233 1510 L 3197 1510 C 3169 1510 3160 1514 3160 1527 C 3159 1550 3141 1573 3113 1588 C 3098 1596 2999 1600 2786 1600 C 2522 1600 2479 1598 2466 1584 C 2452 1571 2450 1527 2450 1252 C 2450 1070 2454 929 2460 920 C 2468 907 2524 904 2827 900 C 3163 895 3185 894 3188 877 C 3190 867 3189 848 3186 834 L 3180 810 L 2615 810 L 2050 810 L 2050 839 C 2050 871 2055 874 2129 885 C 2155 889 2183 902 2197 916 L 2220 939 L 2220 1739 C 2220 2204 2216 2549 2211 2563 C 2195 2604 2162 2604 2111 2562 C 2034 2500 1884 2362 1693 2177 C 1390 1886 1199 1740 968 1624 L 859 1570 L 1073 1387 C 1190 1287 1342 1157 1411 1099 C 1479 1041 1627 915 1740 819 C 2251 385 2338 317 2475 254 C 2825 92 3230 179 3373 447 C 3402 501 3440 634 3440 681 C 3440 716 3436 715 3660 730 C 3756 736 3865 743 3903 747 C 3966 752 3970 751 3970 732 C 3970 707 3885 644 3722 549 C 3536 441 3517 427 3430 345 C 3383 300 3320 245 3290 223 C 3124 98 2894 47 2678 86 Z"></path></g><style>@media (prefers-color-scheme: light) { :root { filter: none; } }
@media (prefers-color-scheme: dark) { :root { filter: contrast(0.3846153846153846) brightness(4.5); } }
</style></svg>